<?xml version="1.0" standalone="no"?>
<!DOCTYPE svg PUBLIC "-//W3C//DTD SVG 20010904//EN"
 "http://www.w3.org/TR/2001/REC-SVG-20010904/DTD/svg10.dtd">
<svg version="1.0" xmlns="http://www.w3.org/2000/svg"
 width="360.000000pt" height="200.000000pt" viewBox="0 0 360.000000 200.000000"
 preserveAspectRatio="xMidYMid meet">

<g transform="translate(0.000000,200.000000) scale(0.100000,-0.100000)"
fill="#000f" stroke="none">
<path d="M1637 1318 c-25 -54 -30 -89 -18 -136 31 -112 152 -170 256 -123 106
48 144 182 80 274 -14 20 -15 15 -15 -60 l0 -82 -70 -41 -70 -41 -70 41 -69
40 -3 83 -3 82 -18 -37z"/>
<path d="M1790 1307 c0 -28 -36 -64 -70 -70 l-25 -4 25 -2 c35 -2 70 -34 70
-65 0 -14 5 -26 10 -26 6 0 10 11 10 25 0 14 9 34 20 45 11 11 31 20 45 20 14
0 25 5 25 10 0 6 -13 10 -28 10 -33 0 -62 27 -62 58 0 12 -4 22 -10 22 -5 0
-10 -10 -10 -23z"/>
<path d="M1420 961 l0 -41 41 0 40 0 -3 38 c-3 35 -5 37 -40 40 l-38 3 0 -40z"/>
<path d="M2860 820 l0 -170 40 0 40 0 0 170 0 170 -40 0 -40 0 0 -170z"/>
<path d="M3014 940 c-5 -30 -11 -40 -25 -40 -14 0 -19 -7 -19 -30 0 -23 4 -30
20 -30 18 0 20 -7 20 -76 0 -41 4 -83 10 -93 11 -21 61 -34 96 -25 30 8 35 54
6 54 -31 0 -42 22 -42 81 0 55 1 58 28 61 21 2 28 9 30 31 3 24 0 27 -27 27
-29 0 -31 2 -31 40 0 38 -2 40 -30 40 -27 0 -30 -4 -36 -40z"/>
<path d="M533 899 c-36 -10 -63 -43 -63 -75 0 -37 32 -65 90 -78 62 -14 79
-39 34 -50 -19 -5 -35 -2 -53 11 -14 10 -38 17 -53 15 -25 -3 -26 -5 -16 -27
30 -66 180 -63 208 4 12 30 5 74 -14 91 -7 5 -37 14 -66 20 -61 12 -65 14 -57
35 8 19 46 19 68 0 11 -11 26 -14 43 -9 22 5 24 9 15 26 -11 20 -67 49 -91 47
-7 0 -27 -5 -45 -10z"/>
<path d="M794 896 c-51 -23 -74 -61 -74 -122 0 -42 5 -59 26 -83 48 -57 140
-59 184 -4 26 34 25 40 -7 46 -21 4 -32 1 -42 -14 -24 -33 -72 -23 -85 19 -7
22 -6 22 73 22 44 0 82 4 85 9 11 17 -20 94 -44 112 -35 26 -79 32 -116 15z
m74 -48 c24 -24 13 -38 -28 -38 -26 0 -40 5 -40 13 0 18 21 37 40 37 9 0 21
-5 28 -12z"/>
<path d="M1110 903 c-8 -4 -20 -13 -27 -22 -11 -14 -12 -14 -13 2 0 13 -8 17
-35 17 l-35 0 0 -125 0 -125 40 0 40 0 0 71 c0 79 11 109 40 109 17 0 20 7 20
40 0 40 -3 43 -30 33z"/>
<path d="M1623 899 c-87 -25 -107 -176 -31 -232 34 -25 104 -27 140 -3 34 22
53 72 31 80 -28 11 -44 6 -67 -20 -19 -23 -25 -25 -44 -15 -18 10 -22 20 -22
64 0 29 5 58 12 65 18 18 46 14 60 -8 9 -13 24 -20 45 -20 18 0 33 2 33 5 0
23 -37 69 -65 81 -39 16 -47 16 -92 3z"/>
<path d="M1893 903 c-87 -17 -117 -163 -47 -228 47 -44 134 -38 174 12 27 34
25 40 -11 45 -22 4 -33 0 -40 -14 -13 -25 -65 -24 -79 1 -19 37 -12 41 70 41
l80 0 0 30 c0 77 -67 129 -147 113z m65 -55 c25 -25 13 -38 -33 -38 -49 0 -53
4 -28 32 19 21 44 23 61 6z"/>
<path d="M2373 904 c-24 -6 -73 -48 -73 -63 0 -5 13 -12 29 -16 23 -5 35 -1
51 15 24 24 48 23 64 -3 14 -22 -5 -37 -49 -37 -98 -1 -141 -112 -58 -147 27
-11 42 -12 69 -3 19 6 34 17 34 23 0 7 5 4 11 -5 6 -11 22 -18 42 -18 l33 0
-4 108 c-3 83 -8 111 -21 124 -17 18 -89 30 -128 22z m77 -156 c0 -24 -26 -58
-45 -58 -39 0 -39 55 -1 70 34 14 46 11 46 -12z"/>
<path d="M1203 775 c42 -126 42 -126 72 -123 28 3 31 8 72 126 l42 122 -28 0
c-26 0 -29 -5 -50 -75 -12 -41 -24 -75 -26 -75 -2 0 -14 34 -26 75 l-22 75
-38 0 -37 0 41 -125z"/>
<path d="M1420 775 l0 -125 40 0 40 0 0 125 0 125 -40 0 -40 0 0 -125z"/>
<path d="M2060 893 c0 -5 17 -60 38 -123 37 -111 40 -115 69 -118 30 -3 31 -3
72 113 22 64 41 121 41 126 0 6 -12 9 -27 7 -25 -3 -30 -10 -47 -70 -11 -38
-23 -68 -26 -68 -3 0 -15 30 -26 68 -19 66 -19 67 -57 70 -20 2 -37 -1 -37 -5z"/>
<path d="M2590 794 c0 -115 7 -139 44 -148 27 -7 76 8 88 27 5 8 8 6 8 -5 0
-14 8 -18 35 -18 l35 0 0 125 0 125 -35 0 -35 0 0 -79 c0 -87 -19 -128 -53
-116 -14 6 -17 21 -17 101 l0 94 -35 0 -35 0 0 -106z"/>
</g>
</svg>
